<?xml version="1.0" encoding="UTF-8"?>
<svg version="1.1" xmlns="http://www.w3.org/2000/svg" width="512" height="512">
<path d="M0 0 C1.67039841 -0.01029488 1.67039841 -0.01029488 3.37454224 -0.02079773 C7.02863586 -0.03898795 10.68229691 -0.03523894 14.33642578 -0.02954102 C16.89413593 -0.0341067 19.45184485 -0.03941343 22.009552 -0.04542542 C27.36059134 -0.05434144 32.71147535 -0.05218712 38.0625 -0.04199219 C44.21902194 -0.03052067 50.37510773 -0.04458137 56.53157222 -0.07138866 C62.48923592 -0.09634422 68.44676587 -0.09870192 74.4044838 -0.0922718 C76.92329763 -0.09211911 79.44212006 -0.09812059 81.96090317 -0.11056328 C85.49248816 -0.12555218 89.02313064 -0.11473698 92.5546875 -0.09765625 C94.09343536 -0.1121582 94.09343536 -0.1121582 95.66326904 -0.12695312 C109.46756076 0.01184169 120.1673339 5.4484839 130.15673828 14.71655273 C140.43038623 25.57172793 142.9100251 37.50285903 142.59423828 52.02905273 C142.58070313 53.22401367 142.56716797 54.41897461 142.55322266 55.65014648 C142.51820121 58.56860074 142.46908821 61.48607621 142.40673828 64.40405273 C143.70806702 64.39517029 145.00939575 64.38628784 146.35015869 64.37713623 C158.64906921 64.29584312 170.94792479 64.23598793 183.24704361 64.19680405 C189.56926981 64.1759816 195.89127809 64.14776145 202.21337891 64.10229492 C208.3212471 64.0586469 214.42890644 64.03487549 220.53691864 64.02454376 C222.86038243 64.01718638 225.18383555 64.00281957 227.50720978 63.98113251 C246.48742984 63.81110563 259.69154682 65.2958937 274.15673828 78.71655273 C283.73088929 88.83263682 286.87338046 100.38481375 286.79441833 114.00387573 C286.80249664 115.6945826 286.80249664 115.6945826 286.81073815 117.41944516 C286.82498005 121.17468118 286.81792307 124.92956283 286.81079102 128.68481445 C286.81649655 131.38600774 286.82336153 134.08717608 286.83158875 136.7883606 C286.84873817 143.35101193 286.84962478 149.91356735 286.84437584 156.47623526 C286.84032558 161.81343229 286.84178784 167.15060109 286.8471241 172.48779678 C286.84787252 173.24897691 286.84862094 174.01015704 286.84939205 174.79440323 C286.85092361 176.34101112 286.85246196 177.88761901 286.85400701 179.43422689 C286.86771819 193.92075501 286.86230418 208.40722905 286.8508218 222.89375593 C286.84089161 236.12851338 286.85382881 249.36313099 286.87775599 262.59786688 C286.90217549 276.20812529 286.91174782 289.81831865 286.90510327 303.42859852 C286.90161727 311.06139705 286.90380197 318.69408808 286.92135429 326.32686996 C286.93611203 332.82465238 286.93666535 339.3222516 286.91928338 345.82003056 C286.91079985 349.13106203 286.91074568 352.44149967 286.92393494 355.75255585 C286.93717519 359.35209673 286.92556898 362.95075871 286.90794373 366.55026245 C286.91754873 367.58238889 286.92715374 368.61451532 286.93704981 369.67791831 C286.79876907 383.47377904 281.35601563 394.17142951 272.09423828 404.15405273 C260.36688426 415.25315565 247.44637828 416.85509933 231.94754028 416.79173279 C230.28103905 416.79591016 228.61454067 416.80138989 226.94804752 416.8080526 C222.38751545 416.822473 217.82716463 416.81827315 213.26662278 416.81088579 C208.34080716 416.80614798 203.41503039 416.8186694 198.48922729 416.8289032 C188.84646056 416.84608454 179.203759 416.84693257 169.56098093 416.84169029 C161.72187969 416.8376461 153.88279768 416.83909512 146.04369736 416.84443855 C144.92727099 416.84518697 143.81084462 416.8459354 142.66058715 416.8467065 C140.39244326 416.848238 138.12429938 416.84977635 135.8561555 416.85132147 C114.59393747 416.86504413 93.33175625 416.85961047 72.06953906 416.84813625 C52.62693339 416.83820429 33.1844229 416.85114435 13.74183191 416.87507045 C-6.23265171 416.89946548 -26.20709102 416.9090683 -46.18158925 416.90241772 C-57.39142126 416.89892638 -68.60118009 416.90115196 -79.81100082 416.91866875 C-89.35370054 416.93339575 -98.89627553 416.93401959 -108.43897282 416.91659784 C-113.30529739 416.90808961 -118.17139919 416.90593405 -123.0377121 416.92124939 C-127.49760595 416.93511159 -131.95708651 416.93031365 -136.41695656 416.91101015 C-138.02520387 416.90725454 -139.6334844 416.91015941 -141.24170206 416.9206218 C-157.38340194 417.01811657 -169.33740278 413.23046782 -181.34326172 402.09155273 C-190.91741273 391.97546865 -194.0599039 380.42329172 -193.98094177 366.80422974 C-193.98632731 365.67709183 -193.99171285 364.54995392 -193.99726158 363.38866031 C-194.01150348 359.63342429 -194.00444651 355.87854264 -193.99731445 352.12329102 C-194.00301999 349.42209773 -194.00988497 346.72092938 -194.01811218 344.01974487 C-194.03526161 337.45709354 -194.03614821 330.89453812 -194.03089928 324.33187021 C-194.02684902 318.99467318 -194.02831128 313.65750438 -194.03364754 308.32030869 C-194.03439596 307.55912856 -194.03514438 306.79794843 -194.03591548 306.01370224 C-194.03744705 304.46709435 -194.03898539 302.92048646 -194.04053045 301.37387858 C-194.05424162 286.88735046 -194.04882762 272.40087642 -194.03734524 257.91434954 C-194.02741505 244.67959209 -194.04035225 231.44497448 -194.06427943 218.21023859 C-194.08869893 204.59998018 -194.09827126 190.98978682 -194.0916267 177.37950695 C-194.08814071 169.74670842 -194.09032541 162.11401739 -194.10787773 154.4812355 C-194.12263547 147.98345309 -194.12318879 141.48585387 -194.10580682 134.98807491 C-194.09732329 131.67704344 -194.09726912 128.3666058 -194.11045837 125.05554962 C-194.12369862 121.45600874 -194.11209242 117.85734675 -194.09446716 114.25784302 C-194.10407217 113.22571658 -194.11367718 112.19359015 -194.12357324 111.13018715 C-193.98529251 97.33432643 -188.54253906 86.63667596 -179.28076172 76.65405273 C-169.43271953 67.33358423 -158.034312 63.91322455 -144.72753906 64.06347656 C-143.17453094 64.06281944 -143.17453094 64.06281944 -141.59014893 64.06214905 C-138.20296692 64.06422193 -134.81629365 64.08748203 -131.42919922 64.11108398 C-129.06694814 64.11668527 -126.70469356 64.12095285 -124.34243774 64.12394714 C-118.15120679 64.13535391 -111.96018987 64.16478516 -105.76904297 64.19805908 C-99.44094741 64.22885001 -93.11281698 64.24247172 -86.78466797 64.25756836 C-74.38743896 64.28965889 -61.9903682 64.34080463 -49.59326172 64.40405273 C-49.61420898 63.67927734 -49.63515625 62.95450195 -49.65673828 62.20776367 C-49.74096867 58.85667345 -49.79225676 55.50580703 -49.84326172 52.15405273 C-49.87677734 51.01452148 -49.91029297 49.87499023 -49.94482422 48.70092773 C-50.11081741 34.09352733 -45.12968484 23.2695194 -35.28076172 12.65405273 C-25.1697376 3.08469062 -13.61279936 -0.05950209 0 0 Z " fill="#663210" transform="translate(209.59326171875,47.595947265625)"/>
<path d="M0 0 C4.26173961 0.55314588 8.32681406 1.25465915 12.45700073 2.43984985 C14.00751633 2.88110199 14.00751633 2.88110199 15.58935547 3.33126831 C17.25998047 3.81431931 17.25998047 3.81431931 18.96435547 4.30712891 C20.74907761 4.81717468 20.74907761 4.81717468 22.56985474 5.33752441 C25.8240522 6.26847344 29.07702501 7.20350167 32.32953405 8.1403203 C35.76282554 9.12809393 39.19766918 10.1104404 42.63235474 11.09335327 C49.15888446 12.96192044 55.68408818 14.83507382 62.20879376 16.70999944 C71.69236728 19.43496388 81.17790518 22.15307427 90.6634388 24.87120628 C92.08390506 25.27826031 93.50437054 25.6853171 94.92483521 26.09237671 C95.6209677 26.29185768 96.3171002 26.49133864 97.03432763 26.69686449 C101.08879962 27.8588609 105.14290326 29.02213082 109.19666064 30.18661773 C112.36646671 31.09711904 115.53649129 32.00685814 118.70654297 32.91650391 C119.90874922 33.26154276 121.11095547 33.60658161 122.34959221 33.96207619 C131.70354058 36.64123515 141.07116639 39.26997933 150.45092583 41.85735512 C151.4182168 42.12577406 152.38550777 42.394193 153.3821106 42.67074585 C154.22959932 42.90452124 155.07708805 43.13829662 155.95025826 43.37915611 C158 44 158 44 160 45 C160.51743193 47.48546783 160.93598025 49.93056718 161.3125 52.4375 C163.6583143 66.05165463 170.06955313 75.40345016 180.6875 84.3125 C191.38733882 91.70549887 203.35408187 93.50181771 216 92 C229.87327548 89.45307038 240.36795295 81.56494376 248.58203125 70.2890625 C253.3625656 62.57172606 254.77147352 53.85298072 256 45 C276.10329912 38.739631 296.34950954 32.99137098 316.59927368 27.22769165 C324.09215785 25.0946231 331.584099 22.95824182 339.07628632 20.8227272 C341.85436251 20.03099877 344.63253018 19.23959196 347.41070557 18.44821167 C358.03156439 15.42199104 368.64747602 12.37930295 379.2578125 9.31640625 C381.56719531 8.65103717 383.87660166 7.98574977 386.18603516 7.32055664 C389.30985741 6.4207642 392.43317508 5.51941889 395.55487061 4.61227417 C398.3165322 3.80985023 401.0798996 3.01359548 403.84375 2.21875 C404.6281546 1.98873795 405.4125592 1.75872589 406.22073364 1.52174377 C409.65575069 0.53988397 412.39359563 0 416 0 C416.09348307 22.41819215 416.16399874 44.83635212 416.20724869 67.25469971 C416.22786506 77.66416951 416.25596805 88.07351814 416.30175781 98.48291016 C416.3416538 107.55680454 416.36743954 116.63061114 416.37635398 125.7045908 C416.38156403 130.50825937 416.39379038 135.31167687 416.42292023 140.11526489 C416.45013293 144.63949944 416.45843317 149.16338021 416.45243073 153.68768883 C416.45352835 155.3452821 416.46144738 157.00288759 416.4768219 158.66040993 C416.6154298 174.37880721 416.6154298 174.37880721 412 181 C406.824478 185.11929302 403.05200279 186.12419073 396.5468111 186.13701439 C395.5549828 186.14099213 395.5549828 186.14099213 394.54311755 186.14505023 C392.31179666 186.15275276 390.0805307 186.15330276 387.84919739 186.15390015 C386.23951174 186.15791414 384.6298271 186.16235225 383.02014369 186.1671797 C378.58435201 186.17915805 374.14857122 186.18479657 369.71276653 186.18936086 C364.93347322 186.19531213 360.15419296 186.20692312 355.37490845 186.21765137 C343.82689658 186.24218557 332.2788804 186.25680366 320.73085049 186.26971143 C317.47020258 186.27342251 314.2095551 186.27739581 310.94890761 186.2814641 C290.70857431 186.30669884 270.46824035 186.32875589 250.22789478 186.34119225 C245.5385672 186.34412203 240.84923964 186.34708368 236.15991211 186.35009766 C234.41160903 186.35121673 234.41160903 186.35121673 232.62798669 186.35235842 C213.74157888 186.36501552 194.85526514 186.39824286 175.96890131 186.43989949 C156.58679438 186.48229979 137.20473563 186.50588505 117.82258242 186.51111281 C106.93690758 186.514529 96.05137975 186.52630874 85.1657505 186.55921555 C75.89614862 186.58719096 66.62672389 186.59822637 57.35708306 186.58702008 C52.62693213 186.5818271 47.89715235 186.58476173 43.16705513 186.60948563 C38.83594053 186.63193526 34.50546461 186.63127182 30.17433914 186.61228175 C28.60833924 186.60947572 27.04229642 186.61511385 25.47636566 186.63009469 C10.2667269 186.76669302 10.2667269 186.76669302 4 181 C-0.25603013 176.46938728 -0.12462154 171.97772036 -0.12025452 165.95123291 C-0.12110894 165.24136065 -0.12196337 164.53148839 -0.12284368 163.80010486 C-0.12449065 161.42172391 -0.11898992 159.04341351 -0.11352539 156.66503906 C-0.11324332 154.96003725 -0.11340163 153.25503531 -0.1139679 151.55003357 C-0.11425511 146.92024218 -0.1083706 142.29047664 -0.10139394 137.66069126 C-0.09514781 132.82268466 -0.0945556 127.98467749 -0.09336853 123.14666748 C-0.09025894 113.98468423 -0.08205054 104.82271289 -0.07201904 95.66073489 C-0.06084638 85.23037062 -0.05534454 74.80000578 -0.05032361 64.36963701 C-0.03986764 42.91308469 -0.02227537 21.45654309 0 0 Z " fill="#AC5013" transform="translate(48,246)"/>
<path d="M0 0 C1.61385446 -0.00389424 3.2277055 -0.00953566 4.84154844 -0.0167709 C9.27035636 -0.03152599 13.69880874 -0.02134402 18.1276052 -0.00703418 C22.90613793 0.00407141 27.68462061 -0.00786563 32.46315002 -0.01687622 C41.82193352 -0.03081349 51.18058214 -0.02324889 60.53935921 -0.00820064 C71.4365205 0.00865464 82.33364815 0.0054498 93.23081845 0.00170528 C112.67331542 -0.00417419 132.11574763 0.01000172 151.55822754 0.03465271 C170.42706733 0.05857372 189.29582062 0.06565707 208.16467285 0.05516052 C228.70834127 0.04375278 249.25196967 0.04181949 269.79563761 0.05625862 C271.98599656 0.05778447 274.17635552 0.05930482 276.36671448 0.06081963 C277.9832903 0.06195635 277.9832903 0.06195635 279.63252422 0.06311603 C287.22958579 0.06785997 294.8266295 0.06600664 302.4236908 0.06175423 C311.68113449 0.05682897 320.93849636 0.06280567 330.1959213 0.08264852 C334.91979804 0.09252424 339.64355015 0.09762259 344.36743355 0.08975601 C348.69143696 0.08270264 353.01518884 0.08949581 357.33915907 0.10735964 C358.9036622 0.11140636 360.46818823 0.1104005 362.03268284 0.10384078 C364.15984762 0.09568497 366.28616595 0.10600857 368.41327667 0.12088871 C369.59458931 0.12191784 370.77590196 0.12294697 371.99301195 0.12400728 C377.11014025 0.69702399 381.05389241 2.12296886 384.6739502 5.93870544 C387.49544242 10.22319364 388.6119172 12.89753048 388.58850098 18.09593201 C388.58834991 19.21679199 388.58819885 20.33765198 388.58804321 21.49247742 C388.57772064 22.69676392 388.56739807 23.90105042 388.5567627 25.14183044 C388.55251785 26.99780853 388.55251785 26.99780853 388.54818726 28.89128113 C388.5388922 32.17272086 388.52093725 35.45396298 388.4987793 38.7353363 C388.47828068 42.08696166 388.46934744 45.43859552 388.45910645 48.79026794 C388.4370505 55.36065768 388.40357601 61.9309154 388.3614502 68.50120544 C371.96601859 73.59072045 355.48837878 78.33725594 338.9536438 82.9517746 C332.69484176 84.69983788 326.4385077 86.45673483 320.1817627 88.21214294 C319.44930077 88.41756084 318.71683884 88.62297874 317.96218109 88.83462143 C298.502602 94.29282827 279.06176842 99.81711847 259.62102509 105.34196472 C256.85672764 106.12754754 254.09239927 106.91302148 251.32806396 107.69847107 C241.00553361 110.63157049 230.68331529 113.56576574 220.3614502 116.50120544 C219.57987549 115.71423279 218.79830078 114.92726013 217.99304199 114.11643982 C206.36444537 102.56012411 193.92218746 97.08880805 177.59533691 97.06004333 C163.94922049 97.46665232 153.49748073 103.84311602 144.3614502 113.50120544 C143.75961914 114.35839172 143.75961914 114.35839172 143.14562988 115.2328949 C141.3614502 116.50120544 141.3614502 116.50120544 138.38586426 116.15428162 C137.14546387 115.80857117 135.90506348 115.46286072 134.6270752 115.10667419 C133.92818176 114.91647202 133.22928833 114.72626984 132.50921631 114.53030396 C130.12075702 113.8733373 127.74133197 113.18856007 125.3614502 112.50120544 C123.6226491 112.00936769 121.88371224 111.51800969 120.14465332 111.02708435 C115.21108935 109.62520658 110.28569212 108.19623566 105.36178589 106.760849 C99.64634417 105.09537678 93.92771544 103.44092022 88.20910645 101.78636169 C87.00792679 101.43870758 85.80674713 101.09105347 84.56916809 100.73286438 C70.57683553 96.68819174 56.56384262 92.71679587 42.5489502 88.75120544 C41.28669617 88.39386322 40.02444214 88.036521 38.72393799 87.66835022 C26.1414036 84.10666179 13.55653851 80.55339535 0.96691895 77.01683044 C-0.88684186 76.4956753 -2.74060167 75.97451658 -4.59436035 75.45335388 C-7.94538255 74.51136918 -11.29718264 73.57222908 -14.64953613 72.63499451 C-16.10683319 72.22589201 -17.56411003 71.81671744 -19.0213623 71.40745544 C-20.26289062 71.0600531 -21.50441895 70.71265076 -22.78356934 70.35472107 C-25.6385498 69.50120544 -25.6385498 69.50120544 -27.6385498 68.50120544 C-27.76566366 60.67260639 -27.85303371 52.84427498 -27.91320801 45.01487732 C-27.9354719 42.35292528 -27.97237622 39.692327 -28.01574707 37.03050232 C-28.07662014 33.19764758 -28.10481258 29.36570657 -28.12683105 25.53245544 C-28.15263748 24.34881409 -28.17844391 23.16517273 -28.20503235 21.94566345 C-28.20709254 15.83276241 -27.78070703 11.35353003 -24.39872742 6.18370056 C-17.17731964 -0.71900246 -9.40843824 -0.06258067 0 0 Z " fill="#AC5013" transform="translate(75.6385498046875,143.49879455566406)"/>
<path d="M0 0 C0.85922058 -0.0071553 1.71844116 -0.01431061 2.60369873 -0.02168274 C3.54347061 -0.02437164 4.48324249 -0.02706055 5.45149231 -0.02983093 C6.44369781 -0.03640213 7.43590332 -0.04297333 8.45817566 -0.04974365 C11.74737116 -0.06948114 15.03652096 -0.081141 18.32575989 -0.09111023 C19.44937738 -0.09518576 20.57299488 -0.09926128 21.73066139 -0.10346031 C27.67910707 -0.1243241 33.62752967 -0.13862386 39.57600403 -0.147995 C45.71502628 -0.15905319 51.85368546 -0.1934458 57.99257946 -0.23316669 C62.7170071 -0.25933546 67.44134832 -0.26768715 72.16584206 -0.27127647 C74.42840842 -0.27614261 76.69097092 -0.28775729 78.95346642 -0.30631447 C82.12497428 -0.3307081 85.295544 -0.32973998 88.46711731 -0.32279968 C89.39676804 -0.33560974 90.32641876 -0.3484198 91.28424072 -0.36161804 C97.52957225 -0.31196104 101.55263208 0.62411206 106.78279114 4.14717102 C111.78279114 12.14717102 111.78279114 12.14717102 111.78279114 32.14717102 C69.54279114 32.14717102 27.30279114 32.14717102 -16.21720886 32.14717102 C-16.21720886 12.14717102 -16.21720886 12.14717102 -12.21720886 5.14717102 C-8.29790264 1.5146433 -5.31917505 0.03045465 0 0 Z " fill="#FEFEFE" transform="translate(208.2172088623047,79.85282897949219)"/>
<path d="M0 0 C5.57296939 2.34211096 8.67605054 5.79342969 10.95703125 11.375 C11.88664985 17.15929349 10.29636518 21.67746604 6.95703125 26.375 C1.75907209 30.51215117 -2.40103313 32.02830514 -9.04296875 31.375 C-13.4286709 29.55035153 -16.93984 27.07297397 -19.54296875 23.0625 C-21.58062922 18.05325136 -22.21450511 14.22090028 -20.16015625 9.23046875 C-15.81015429 1.46672353 -9.07261688 -2.77556157 0 0 Z " fill="#FDFCFC" transform="translate(261.04296875,272.625)"/>
</svg>
